# Blender 3.3.0
# www.blender.org
mtllib key.mtl
o Cube
v 0.381851 6.946529 0.284446
v 0.381851 -0.863952 0.284446
v 0.381851 6.946529 1.557668
v 0.381851 -0.863952 1.557668
v -0.891372 6.946529 0.284446
v -0.891372 -0.863952 0.284446
v -0.891372 6.946529 1.557668
v -0.891372 -0.863952 1.557668
v 0.381851 0.385190 0.284446
v -0.891372 0.385190 1.557668
v 0.381851 0.385190 1.557668
v -0.891372 0.385190 0.284446
v 2.325933 0.385190 0.284446
v 2.325933 -0.863952 0.284446
v 2.325933 0.385190 1.557668
v 2.325933 -0.863952 1.557668
v 1.179363 -0.863952 0.284446
v 0.972818 -0.863952 1.557668
v 0.972743 0.385209 1.557533
v 1.179363 0.385190 0.284446
v 2.325933 0.385190 -2.054682
v 2.325933 -0.863952 -2.054682
v 0.972818 -0.863952 -2.054682
v 0.972818 0.385190 -2.054682
v 2.325933 -0.863952 -0.595454
v 2.325933 0.385190 -0.595454
v 1.179363 0.385190 -1.029501
v 1.179363 -0.863952 -1.029501
v -0.891372 0.385389 -2.078817
v -0.891372 -0.863754 -2.078817
v -0.891372 0.385389 -1.053636
v -0.891372 -0.863754 -1.053636
v -0.891372 1.820770 1.557668
v 0.381851 1.820770 0.284446
v 0.320608 1.819388 1.448214
v -0.891372 1.820770 0.284446
v -0.891372 3.131994 1.557668
v 0.381851 2.951564 0.284446
v 0.366865 3.126038 1.524687
v -0.891372 2.951564 0.284446
v 0.381851 2.951564 -2.062332
v 0.381851 1.820770 -2.062332
v -0.891372 2.951564 -2.062332
v -0.891372 1.820770 -2.062332
v 0.381851 1.820770 -1.038797
v 0.381851 2.951564 -1.038797
v -0.891372 2.951564 -1.038797
v -0.891372 1.820770 -1.038797
v 2.325933 2.951564 -2.062332
v 2.325933 1.820770 -2.062332
v 2.325933 1.820770 -1.038797
v 2.325933 2.951564 -1.038797
v -0.959505 5.145589 2.358214
v -0.727192 5.720889 2.384329
v -1.644666 5.542171 0.381724
v -1.428870 6.141635 0.420032
v 0.953708 4.487652 1.595246
v 1.134723 5.134384 1.664539
v 0.251133 4.907440 -0.365061
v 0.466929 5.506904 -0.326753
v 0.862680 5.178680 -0.182656
v 0.954238 4.597165 0.064022
v -1.242709 4.831431 -0.219808
v -1.151151 4.249916 0.026871
v 0.694628 5.987038 1.785322
v 0.826474 5.351583 1.994911
v -1.410761 5.639789 1.748171
v -1.319202 5.058274 1.994850
v 0.666178 2.064877 2.091957
v 0.647410 1.779476 2.232626
v -0.684599 5.606571 1.430959
v -0.684599 5.957376 1.430959
v 1.234794 2.051876 2.082314
v 0.947609 2.027103 2.598056
v -0.010057 5.606571 1.430959
v -0.010057 5.957376 1.430959
v -0.684198 5.605992 2.050755
v -0.480627 5.322627 2.499316
v 0.136086 4.471511 2.587669
v 0.540265 3.768009 2.433923
v 0.461272 2.542547 2.194887
v 0.509334 2.556460 2.564597
v 0.688194 3.815647 2.736873
v -0.105254 5.143720 2.813682
v -0.572035 5.796834 2.581975
v -0.684599 5.957376 2.051061
v 1.384133 2.704490 2.084331
v 1.245315 3.337393 2.374636
v 0.949227 4.276501 2.426079
v 0.397038 5.051994 2.310362
v 0.011501 5.577478 2.031552
v -0.009515 5.956607 2.050625
v 0.192793 5.676622 2.497865
v 0.747281 4.912589 2.639263
v 1.244326 3.970353 2.778859
v 1.105684 2.627709 2.705999
vn -0.0000 1.0000 -0.0000
vn 0.0130 -0.0043 0.9999
vn -1.0000 -0.0000 -0.0000
vn -0.0000 -1.0000 -0.0000
vn 1.0000 -0.0019 0.0061
vn -0.0000 -0.0000 -1.0000
vn -0.0000 -0.0000 1.0000
vn 1.0000 -0.0000 -0.0000
vn -0.0000 0.0001 1.0000
vn 0.0001 0.0001 1.0000
vn -0.0117 -0.0000 0.9999
vn -0.0001 -1.0000 -0.0000
vn 0.0129 -0.0000 -0.9999
vn 0.0001 1.0000 -0.0000
vn 0.9994 0.0223 0.0251
vn 0.0440 0.0390 0.9983
vn 0.9993 -0.0200 0.0331
vn 0.0575 -0.0302 0.9979
vn -0.8738 0.3129 0.3724
vn -0.3108 0.1716 -0.9349
vn 0.8968 -0.2543 -0.3620
vn 0.3086 -0.1773 0.9345
vn -0.3460 -0.9355 -0.0720
vn 0.3339 0.9398 0.0729
vn 0.0787 -0.3788 -0.9221
vn -0.9865 -0.1627 -0.0174
vn -0.0596 0.3408 0.9382
vn 0.9834 0.1813 0.0020
vn -0.1434 0.9111 -0.3865
vn 0.1347 -0.9162 0.3775
vn -1.0000 -0.0006 0.0003
vn 0.8755 -0.2510 0.4130
vn 0.3501 -0.8994 -0.2618
vn -0.0887 0.0878 -0.9922
vn -0.3976 -0.2739 0.8757
vn 0.0006 1.0000 0.0006
vn 0.0996 0.9189 0.3818
vn 0.2286 0.3986 0.8882
vn 0.0977 0.0830 0.9917
vn -0.1422 -0.0756 0.9869
vn -0.0211 -0.9995 -0.0239
vn -0.2245 -0.7369 -0.6376
vn -0.2744 -0.3113 -0.9098
vn -0.1130 0.0756 -0.9907
vn -0.0554 0.2719 -0.9607
vn 0.9994 0.0292 -0.0174
vn 0.8738 0.2782 -0.3989
vn 0.7056 0.4108 -0.5773
vn 0.8453 0.3369 -0.4147
vn 0.9558 -0.0531 0.2891
vn -0.9682 -0.2397 -0.0719
vn -0.9600 0.0541 0.2748
vn -0.7069 -0.4761 0.5231
vn -0.6938 -0.3680 0.6190
vn -0.9593 -0.1318 0.2499
vt 0.625000 0.500000
vt 0.375000 0.500000
vt 0.625000 0.750000
vt 0.375000 0.750000
vt 0.875000 0.500000
vt 0.625000 0.250000
vt 0.125000 0.500000
vt 0.375000 0.250000
vt 0.875000 0.750000
vt 0.625000 1.000000
vt 0.625000 0.000000
vt 0.125000 0.750000
vt 0.375000 0.000000
vt 0.375000 1.000000
vt 0.450033 0.500000
vt 0.450033 0.000000
vt 0.450033 1.000000
vt 0.450033 0.750000
vt 0.450033 0.250000
vt 0.450033 0.500000
vt 0.375000 0.500000
vt 0.450033 0.750000
vt 0.375000 0.750000
vt 0.375000 0.500000
vt 0.375000 0.750000
vt 0.450033 0.750000
vt 0.450033 0.500000
vt 0.450033 0.500000
vt 0.375000 0.500000
vt 0.375000 0.500000
vt 0.450033 0.500000
vt 0.375000 0.500000
vt 0.450033 0.500000
vt 0.450033 0.500000
vt 0.375000 0.500000
vt 0.450033 0.500000
vt 0.375000 0.500000
vt 0.450033 0.500000
vt 0.375000 0.500000
vt 0.527796 0.000000
vt 0.527796 1.000000
vt 0.527796 0.500000
vt 0.527796 0.750000
vt 0.527796 0.250000
vt 0.598823 0.000000
vt 0.598823 1.000000
vt 0.598823 0.500000
vt 0.598823 0.750000
vt 0.598823 0.250000
vt 0.598823 0.500000
vt 0.527796 0.500000
vt 0.598823 0.250000
vt 0.527796 0.250000
vt 0.527796 0.500000
vt 0.598823 0.500000
vt 0.598823 0.250000
vt 0.527796 0.250000
vt 0.598823 0.500000
vt 0.527796 0.500000
vt 0.527796 0.500000
vt 0.598823 0.500000
vt 0.375000 0.000000
vt 0.375000 1.000000
vt 0.125000 0.750000
vt 0.625000 0.000000
vt 0.625000 1.000000
vt 0.875000 0.750000
vt 0.375000 0.250000
vt 0.125000 0.500000
vt 0.625000 0.250000
vt 0.875000 0.500000
vt 0.375000 0.750000
vt 0.625000 0.750000
vt 0.375000 0.500000
vt 0.625000 0.500000
vt 0.375000 0.000000
vt 0.375000 1.000000
vt 0.125000 0.750000
vt 0.625000 0.000000
vt 0.625000 1.000000
vt 0.875000 0.750000
vt 0.375000 0.250000
vt 0.125000 0.500000
vt 0.625000 0.250000
vt 0.875000 0.500000
vt 0.375000 0.750000
vt 0.625000 0.750000
vt 0.375000 0.500000
vt 0.625000 0.500000
vt 0.375000 1.000000
vt 0.125000 0.750000
vt 0.375000 0.000000
vt 0.625000 1.000000
vt 0.875000 0.750000
vt 0.625000 0.000000
vt 0.375000 0.250000
vt 0.125000 0.500000
vt 0.625000 0.250000
vt 0.875000 0.500000
vt 0.375000 0.750000
vt 0.625000 0.750000
vt 0.375000 0.500000
vt 0.625000 0.500000
vt 0.125000 0.541667
vt 0.375000 0.208333
vt 0.125000 0.583333
vt 0.375000 0.166667
vt 0.125000 0.625000
vt 0.375000 0.125000
vt 0.125000 0.666667
vt 0.375000 0.083333
vt 0.125000 0.708333
vt 0.375000 0.041667
vt 0.875000 0.708333
vt 0.625000 0.041667
vt 0.875000 0.666667
vt 0.625000 0.083333
vt 0.875000 0.625000
vt 0.625000 0.125000
vt 0.875000 0.583333
vt 0.625000 0.166667
vt 0.875000 0.541667
vt 0.625000 0.208333
vt 0.375000 0.708333
vt 0.375000 0.666667
vt 0.375000 0.625000
vt 0.375000 0.583333
vt 0.375000 0.541667
vt 0.625000 0.541667
vt 0.625000 0.583333
vt 0.625000 0.625000
vt 0.625000 0.666667
vt 0.625000 0.708333
s 0
usemtl Material
f 1/1/1 5/5/1 7/9/1 3/3/1
f 39/48/2 3/3/2 7/10/2 37/46/2
f 37/45/3 7/11/3 5/6/3 40/49/3
f 6/7/4 2/2/4 4/4/4 8/12/4
f 38/47/5 1/1/5 3/3/5 39/48/5
f 40/49/6 5/6/6 1/1/6 38/47/6
f 6/8/6 12/19/6 9/15/6 2/2/6
f 18/25/4 17/24/4 14/21/4 16/23/4
f 8/13/3 10/16/3 12/19/3 6/8/3
f 4/4/7 11/18/7 10/17/7 8/14/7
f 14/21/8 13/20/8 15/22/8 16/23/8
f 20/27/1 19/26/1 15/22/1 13/20/1
f 19/26/9 18/25/9 16/23/9 15/22/9
f 26/33/8 25/32/8 22/29/8 21/28/8
f 2/2/6 9/15/6 20/27/6 17/24/6
f 11/18/10 4/4/10 18/25/10 19/26/10
f 9/15/1 11/18/1 19/26/1 20/27/1
f 4/4/4 2/2/4 17/24/4 18/25/4
f 23/30/6 24/31/6 21/28/6 22/29/6
f 27/34/1 26/33/1 21/28/1 24/31/1
f 28/35/11 27/34/11 31/38/11 32/39/11
f 25/32/4 28/35/4 23/30/4 22/29/4
f 14/21/4 17/24/4 28/35/4 25/32/4
f 17/24/3 20/27/3 27/34/3 28/35/3
f 20/27/1 13/20/1 26/33/1 27/34/1
f 13/20/8 14/21/8 25/32/8 26/33/8
f 32/39/3 31/38/3 29/36/3 30/37/3
f 23/30/12 28/35/12 32/39/12 30/37/12
f 24/31/13 23/30/13 30/37/13 29/36/13
f 27/34/14 24/31/14 29/36/14 31/38/14
f 12/19/6 36/44/6 34/42/6 9/15/6
f 9/15/15 34/42/15 35/43/15 11/18/15
f 10/16/3 33/40/3 36/44/3 12/19/3
f 11/18/16 35/43/16 33/41/16 10/17/16
f 45/54/4 42/51/4 50/59/4 51/60/4
f 34/42/17 38/47/17 39/48/17 35/43/17
f 33/40/3 37/45/3 40/49/3 36/44/3
f 35/43/18 39/48/18 37/46/18 33/41/18
f 44/53/6 43/52/6 41/50/6 42/51/6
f 47/56/1 46/55/1 41/50/1 43/52/1
f 45/54/4 48/57/4 44/53/4 42/51/4
f 48/57/3 47/56/3 43/52/3 44/53/3
f 36/44/3 40/49/3 47/56/3 48/57/3
f 34/42/4 36/44/4 48/57/4 45/54/4
f 40/49/1 38/47/1 46/55/1 47/56/1
f 38/47/8 34/42/8 45/54/8 46/55/8
f 52/61/8 51/60/8 50/59/8 49/58/8
f 46/55/7 45/54/7 51/60/7 52/61/7
f 42/51/6 41/50/6 49/58/6 50/59/6
f 41/50/1 46/55/1 52/61/1 49/58/1
f 53/62/19 54/65/19 56/70/19 55/68/19
f 55/68/20 56/70/20 60/75/20 59/74/20
f 59/74/21 60/75/21 58/73/21 57/72/21
f 57/72/22 58/73/22 54/66/22 53/63/22
f 55/69/23 59/74/23 57/72/23 53/64/23
f 60/75/24 56/71/24 54/67/24 58/73/24
f 61/76/25 62/79/25 64/84/25 63/82/25
f 63/82/26 64/84/26 68/89/26 67/88/26
f 67/88/27 68/89/27 66/87/27 65/86/27
f 65/86/28 66/87/28 62/80/28 61/77/28
f 63/83/29 67/88/29 65/86/29 61/78/29
f 68/89/30 64/85/30 62/81/30 66/87/30
f 77/105/31 86/123/31 72/98/31 71/96/31
f 71/96/6 72/98/6 76/103/6 75/102/6
f 87/124/32 96/133/32 74/101/32 73/100/32
f 73/100/33 74/101/33 70/93/33 69/90/33
f 81/112/34 87/124/34 73/100/34 69/91/34
f 96/133/35 82/114/35 70/94/35 74/101/35
f 76/103/36 72/99/36 86/122/36 92/129/36
f 92/129/37 86/122/37 85/120/37 93/130/37
f 93/130/38 85/120/38 84/118/38 94/131/38
f 94/131/39 84/118/39 83/116/39 95/132/39
f 95/132/40 83/116/40 82/114/40 96/133/40
f 71/97/41 75/102/41 91/128/41 77/104/41
f 77/104/42 91/128/42 90/127/42 78/106/42
f 78/106/43 90/127/43 89/126/43 79/108/43
f 79/108/44 89/126/44 88/125/44 80/110/44
f 80/110/45 88/125/45 87/124/45 81/112/45
f 75/102/46 76/103/46 92/129/46 91/128/46
f 91/128/47 92/129/47 93/130/47 90/127/47
f 90/127/48 93/130/48 94/131/48 89/126/48
f 89/126/49 94/131/49 95/132/49 88/125/49
f 88/125/50 95/132/50 96/133/50 87/124/50
f 69/92/51 70/95/51 82/115/51 81/113/51
f 81/113/52 82/115/52 83/117/52 80/111/52
f 80/111/53 83/117/53 84/119/53 79/109/53
f 79/109/54 84/119/54 85/121/54 78/107/54
f 78/107/55 85/121/55 86/123/55 77/105/55
